<svg id="Group_7" data-name="Group 7" xmlns="http://www.w3.org/2000/svg" width="39.514" height="39.404" viewBox="0 0 39.514 39.404">
  <g id="Group_6" data-name="Group 6" transform="translate(0 0)">
    <g id="Group_5" data-name="Group 5" transform="translate(0 0)">
      <g id="Group_2" data-name="Group 2">
        <g id="Group_1" data-name="Group 1">
          <path id="Path_2" data-name="Path 2" d="M-313.828-7.741h-5.791v-11.5c0-3.732,2.052-5.884,5.609-5.884,3.89,0,6.2,2.481,6.2,6.319a6.293,6.293,0,0,1-6.385,6.65h-3.276v2.907h3.642a9.621,9.621,0,0,0,9.536-9.557c0-5.766-3.642-9.392-9.733-9.392-5.551,0-9,3.51-9,9.161v6.882h-2.046v-6.882c0-5.65-3.439-9.161-9-9.161-6.089,0-9.738,3.626-9.738,9.392a9.638,9.638,0,0,0,9.552,9.557h3.629v-.007h2.147V2.232c0,3.742-2.044,5.9-5.624,5.9-3.872,0-6.175-2.491-6.175-6.34A6.288,6.288,0,0,1-333.9-4.843h3.273v-2.9h-3.629A9.63,9.63,0,0,0-343.8,1.8c0,5.768,3.649,9.4,9.738,9.4,5.56,0,9-3.51,9-9.161V-4.843h2.046V2.038c0,5.652,3.448,9.161,9,9.161,6.091,0,9.733-3.636,9.733-9.4A9.613,9.613,0,0,0-313.828-7.741Zm-20.07-4.42c-3.82,0-6.379-2.9-6.379-6.65,0-3.838,2.3-6.319,6.175-6.319,3.58,0,5.624,2.152,5.624,5.884v7.085Zm8.829,4.42V-9.262h2.046v1.521ZM-314.01,8.136c-3.557,0-5.609-2.162-5.609-5.9V-4.843h5.424A6.29,6.29,0,0,1-307.809,1.8C-307.809,5.644-310.12,8.136-314.01,8.136Z" transform="translate(343.805 28.204)" fill="#aa9828"/>
        </g>
      </g>
    </g>
  </g>
</svg>
